<svg width="226" height="104" viewBox="0 0 226 104" fill="none" xmlns="http://www.w3.org/2000/svg">
<g filter="url(#filter0_d_13_9)">
<rect x="9" y="9" width="194" height="72" rx="30" fill="#FF005C"/>
<rect x="11.5" y="11.5" width="189" height="67" rx="27.5" stroke="white" stroke-width="5"/>
</g>
<g filter="url(#filter1_d_13_9)">
<path d="M46.65 37.965C47.01 38.025 47.535 38.055 48.225 38.055C48.945 38.055 49.71 37.92 50.52 37.65C51.36 37.35 51.96 36.99 52.32 36.57C52.98 35.85 53.31 35.16 53.31 34.5C53.31 33.48 52.785 32.715 51.735 32.205C50.715 31.695 49.62 31.44 48.45 31.44C46.44 31.44 44.73 31.65 43.32 32.07L42.69 32.295C42.48 32.295 42.375 31.935 42.375 31.215C42.375 30.495 42.45 29.7 42.6 28.83C42.75 27.96 42.915 27.435 43.095 27.255C44.505 26.835 46.125 26.625 47.955 26.625C49.815 26.625 51.36 26.73 52.59 26.94C53.85 27.15 55.05 27.51 56.19 28.02C57.33 28.5 58.23 29.22 58.89 30.18C59.55 31.14 59.88 32.325 59.88 33.735C59.88 35.145 59.385 36.36 58.395 37.38C57.435 38.4 56.43 39.09 55.38 39.45C55.23 39.51 55.23 39.57 55.38 39.63C55.56 39.69 55.8 39.78 56.1 39.9C56.4 39.99 56.94 40.245 57.72 40.665C58.5 41.085 59.175 41.58 59.745 42.15C60.345 42.69 60.885 43.47 61.365 44.49C61.845 45.48 62.085 46.71 62.085 48.18C62.085 49.65 61.65 51.045 60.78 52.365C59.94 53.685 58.815 54.72 57.405 55.47C54.585 56.97 51.36 57.72 47.73 57.72C45.12 57.72 43.095 57.495 41.655 57.045L40.935 56.82C40.815 56.67 40.68 55.815 40.53 54.255C40.41 52.695 40.35 51.39 40.35 50.34C40.35 49.26 40.365 48.57 40.395 48.27C40.425 48.12 40.785 47.94 41.475 47.73C42.195 47.49 42.84 47.37 43.41 47.37C43.98 47.37 44.265 47.4 44.265 47.46C44.265 49.05 44.655 50.355 45.435 51.375C46.215 52.365 47.58 52.86 49.53 52.86C51.48 52.86 53.01 52.365 54.12 51.375C55.26 50.355 55.83 49.23 55.83 48C55.83 46.74 55.47 45.75 54.75 45.03C54.03 44.31 53.07 43.8 51.87 43.5C49.92 42.96 47.79 42.69 45.48 42.69C45.36 42.69 45.3 42.66 45.3 42.6C45.3 41.25 45.615 39.93 46.245 38.64C46.455 38.19 46.59 37.965 46.65 37.965ZM81.3524 41.745C84.8924 41.415 87.4874 40.59 89.1374 39.27C90.8174 37.92 91.6574 36.6 91.6574 35.31C91.6574 33.99 91.0124 33.03 89.7224 32.43C88.4324 31.8 86.7974 31.485 84.8174 31.485C83.7674 31.485 82.7024 31.575 81.6224 31.755C81.4424 33.045 81.3524 36.375 81.3524 41.745ZM81.8474 57.27C81.5174 57.6 80.8574 57.855 79.8674 58.035C78.8774 58.245 78.0524 58.35 77.3924 58.35C76.7324 58.35 76.1624 58.26 75.6824 58.08L75.9524 32.115C75.5624 31.635 75.1724 30.84 74.7824 29.73C74.4224 28.62 74.2424 27.945 74.2424 27.705C74.2424 27.435 74.2724 27.27 74.3324 27.21C74.3924 27.12 75.3374 27.03 77.1674 26.94C79.0274 26.82 80.9024 26.76 82.7924 26.76C84.6824 26.76 86.3624 26.865 87.8324 27.075C89.3024 27.285 90.8324 27.66 92.4224 28.2C94.0124 28.71 95.2724 29.535 96.2024 30.675C97.1324 31.815 97.5974 33.285 97.5974 35.085C97.5974 36.855 96.9674 38.505 95.7074 40.035C94.4474 41.565 92.7374 42.855 90.5774 43.905C90.5774 44.385 91.5224 46.545 93.4124 50.385C95.3024 54.195 96.8024 56.655 97.9124 57.765C97.9424 57.795 97.9574 57.84 97.9574 57.9C97.9574 57.99 97.7174 58.14 97.2374 58.35C95.9174 58.98 94.4924 59.295 92.9624 59.295L91.8374 59.205C91.1774 58.545 90.0224 56.355 88.3724 52.635C86.7524 48.915 85.8524 46.635 85.6724 45.795C85.3124 46.005 83.8874 46.32 81.3974 46.74C81.4574 52.77 81.6074 56.28 81.8474 57.27ZM119.284 47.64C119.284 50.49 118.414 52.965 116.674 55.065C114.964 57.135 112.624 58.17 109.654 58.17C106.714 58.17 104.404 57.255 102.724 55.425C101.044 53.595 100.204 51.225 100.204 48.315C100.204 45.375 101.239 42.78 103.309 40.53C105.409 38.25 108.229 37.11 111.769 37.11C113.209 37.17 113.989 37.26 114.109 37.38C114.229 37.5 114.289 37.785 114.289 38.235C114.289 38.685 114.244 39.18 114.154 39.72C114.604 39.72 115.174 39.99 115.864 40.53C116.584 41.04 117.169 41.565 117.619 42.105C118.069 42.645 118.459 43.41 118.789 44.4C119.119 45.36 119.284 46.44 119.284 47.64ZM112.714 44.49C112.024 44.04 111.349 43.815 110.689 43.815H110.329C110.269 43.695 110.239 43.44 110.239 43.05C110.239 42.66 110.284 42.285 110.374 41.925C109.144 41.925 107.989 42.48 106.909 43.59C105.859 44.7 105.334 46.245 105.334 48.225C105.334 50.565 106.084 52.185 107.584 53.085C108.154 53.445 108.934 53.625 109.924 53.625C110.944 53.625 111.889 53.16 112.759 52.23C113.659 51.3 114.109 49.92 114.109 48.09C114.109 46.26 113.644 45.06 112.714 44.49ZM133.97 55.29L133.925 54.345L133.88 54.255C133.16 55.365 132.245 56.25 131.135 56.91C130.055 57.57 128.99 57.9 127.94 57.9C124.79 57.9 122.99 55.455 122.54 50.565C122.48 49.785 122.45 47.775 122.45 44.535C122.45 41.295 122.585 39.375 122.855 38.775C123.635 38.145 124.895 37.83 126.635 37.83C127.325 37.83 127.745 37.905 127.895 38.055C127.895 38.085 127.88 38.49 127.85 39.27C127.7 41.55 127.625 43.305 127.625 44.535C127.625 45.765 127.64 46.68 127.67 47.28C127.7 47.85 127.715 48.225 127.715 48.405C127.745 48.555 127.79 48.84 127.85 49.26C127.94 49.68 128.06 50.04 128.21 50.34C128.66 51.21 129.35 51.645 130.28 51.645C131.24 51.645 132.08 51.18 132.8 50.25C133.55 49.29 133.91 48.615 133.88 48.225V46.695C133.88 41.205 133.97 38.25 134.15 37.83C134.3 37.56 134.765 37.275 135.545 36.975C136.355 36.675 137.15 36.525 137.93 36.525C138.71 36.525 139.16 36.585 139.28 36.705L139.19 38.82C139.01 43.11 138.92 46.425 138.92 48.765C138.92 51.105 138.98 52.59 139.1 53.22C139.31 54.72 139.715 55.92 140.315 56.82C140.315 57.12 139.7 57.6 138.47 58.26C137.24 58.92 136.19 59.25 135.32 59.25C135.08 59.25 134.81 58.8 134.51 57.9C134.21 57 134.03 56.13 133.97 55.29ZM148.912 46.875L148.957 48.54V51.96C148.957 55.17 148.897 56.835 148.777 56.955C148.387 57.345 147.712 57.645 146.752 57.855C145.792 58.065 144.997 58.17 144.367 58.17C143.767 58.17 143.467 58.125 143.467 58.035C143.677 56.685 143.782 54.465 143.782 51.375L143.647 41.25C143.647 39.39 143.722 38.385 143.872 38.235C144.202 37.905 144.772 37.62 145.582 37.38C146.392 37.11 147.142 36.975 147.832 36.975C148.552 36.975 148.912 37.05 148.912 37.2C148.822 37.92 148.777 38.64 148.777 39.36C148.777 40.08 148.822 40.44 148.912 40.44L149.047 40.35C149.197 40.14 149.422 39.885 149.722 39.585C150.022 39.255 150.652 38.835 151.612 38.325C152.602 37.785 153.532 37.515 154.402 37.515C155.302 37.515 156.052 37.68 156.652 38.01C157.282 38.31 157.792 38.685 158.182 39.135C158.572 39.585 158.902 40.23 159.172 41.07C159.472 41.91 159.697 42.69 159.847 43.41C159.997 44.13 160.117 45.09 160.207 46.29C160.297 47.94 160.342 50.04 160.342 52.59L160.207 57.855C160.207 58.065 159.712 58.26 158.722 58.44C157.732 58.65 156.937 58.755 156.337 58.755L154.852 58.53C155.152 55.83 155.302 53.22 155.302 50.7C155.302 48.15 155.137 46.245 154.807 44.985C154.477 43.695 153.817 43.05 152.827 43.05C151.837 43.05 151.027 43.32 150.397 43.86C149.797 44.4 149.407 44.94 149.227 45.48L148.912 46.245V46.875ZM175.635 37.695L175.545 31.035C175.545 29.175 175.59 28.2 175.68 28.11C176.04 27.75 176.625 27.405 177.435 27.075C178.275 26.715 179.07 26.535 179.82 26.535C180.57 26.535 180.945 26.595 180.945 26.715C180.705 31.695 180.585 36.99 180.585 42.6C180.585 48.21 180.675 51.555 180.855 52.635C181.065 54.255 181.56 55.455 182.34 56.235C182.34 56.535 181.71 57 180.45 57.63C179.22 58.29 178.17 58.62 177.3 58.62C177.21 58.62 177.075 58.5 176.895 58.26C176.325 57.51 175.98 56.49 175.86 55.2C175.86 55.11 175.83 55.065 175.77 55.065L175.635 55.155C174.375 56.955 172.5 57.855 170.01 57.855C168 57.855 166.41 57.06 165.24 55.47C164.07 53.88 163.485 52.095 163.485 50.115C163.485 46.725 164.535 43.845 166.635 41.475C168.735 39.075 171.735 37.815 175.635 37.695ZM175.725 42.42C175.725 42.36 175.56 42.33 175.23 42.33H175.05C173.13 42.33 171.615 42.945 170.505 44.175C169.425 45.405 168.885 46.965 168.885 48.855C168.885 49.965 169.14 50.88 169.65 51.6C170.19 52.29 170.985 52.635 172.035 52.635C173.115 52.635 173.97 52.17 174.6 51.24C175.26 50.31 175.59 49.575 175.59 49.035C175.59 45.705 175.635 43.5 175.725 42.42Z" fill="white"/>
</g>
<defs>
<filter id="filter0_d_13_9" x="0" y="0" width="226" height="104" filterUnits="userSpaceOnUse" color-interpolation-filters="sRGB">
<feFlood flood-opacity="0" result="BackgroundImageFix"/>
<feColorMatrix in="SourceAlpha" type="matrix" values="0 0 0 0 0 0 0 0 0 0 0 0 0 0 0 0 0 0 127 0" result="hardAlpha"/>
<feOffset dx="7" dy="7"/>
<feGaussianBlur stdDeviation="8"/>
<feComposite in2="hardAlpha" operator="out"/>
<feColorMatrix type="matrix" values="0 0 0 0 0 0 0 0 0 0 0 0 0 0 0 0 0 0 0.5 0"/>
<feBlend mode="normal" in2="BackgroundImageFix" result="effect1_dropShadow_13_9"/>
<feBlend mode="normal" in="SourceGraphic" in2="effect1_dropShadow_13_9" result="shape"/>
</filter>
<filter id="filter1_d_13_9" x="36.35" y="26.535" width="149.99" height="40.76" filterUnits="userSpaceOnUse" color-interpolation-filters="sRGB">
<feFlood flood-opacity="0" result="BackgroundImageFix"/>
<feColorMatrix in="SourceAlpha" type="matrix" values="0 0 0 0 0 0 0 0 0 0 0 0 0 0 0 0 0 0 127 0" result="hardAlpha"/>
<feOffset dy="4"/>
<feGaussianBlur stdDeviation="2"/>
<feComposite in2="hardAlpha" operator="out"/>
<feColorMatrix type="matrix" values="0 0 0 0 0 0 0 0 0 0 0 0 0 0 0 0 0 0 0.25 0"/>
<feBlend mode="normal" in2="BackgroundImageFix" result="effect1_dropShadow_13_9"/>
<feBlend mode="normal" in="SourceGraphic" in2="effect1_dropShadow_13_9" result="shape"/>
</filter>
</defs>
</svg>
