<svg width="226" height="104" viewBox="0 0 226 104" fill="none" xmlns="http://www.w3.org/2000/svg">
<g filter="url(#filter0_d_14_15)">
<rect x="9" y="9" width="194" height="72" rx="30" fill="#FFB800"/>
<rect x="11.5" y="11.5" width="189" height="67" rx="27.5" stroke="white" stroke-width="5"/>
</g>
<g filter="url(#filter1_d_14_15)">
<path d="M47.73 52.365L48.315 52.41C49.605 52.41 50.895 52.08 52.185 51.42C52.935 51.06 53.535 50.475 53.985 49.665C54.465 48.825 54.705 47.895 54.705 46.875C54.705 45.825 54.48 44.97 54.03 44.31C53.58 43.65 53.025 43.14 52.365 42.78C51.705 42.39 50.91 42.09 49.98 41.88C48.39 41.49 46.65 41.295 44.76 41.295L41.295 41.475L41.205 39.585C41.205 36.345 41.37 33.54 41.7 31.17C42.06 28.77 42.27 27.54 42.33 27.48C42.39 27.42 42.84 27.39 43.68 27.39C44.55 27.39 46.425 27.315 49.305 27.165C52.185 27.015 54.375 26.94 55.875 26.94C57.405 26.94 58.245 27.015 58.395 27.165C58.695 27.585 58.845 28.44 58.845 29.73C58.845 31.02 58.77 31.74 58.62 31.89C57.66 31.8 56.595 31.755 55.425 31.755C54.285 31.755 53.1 31.77 51.87 31.8C49.2 31.92 47.775 32.07 47.595 32.25C47.415 32.43 47.325 33.165 47.325 34.455C47.325 35.715 47.355 36.36 47.415 36.39C50.445 36.39 53.25 37.08 55.83 38.46C56.82 38.97 57.675 39.57 58.395 40.26C59.145 40.95 59.76 41.85 60.24 42.96C60.72 44.07 60.96 45.315 60.96 46.695C60.96 50.115 59.475 52.785 56.505 54.705C53.535 56.625 49.605 57.585 44.715 57.585C42.675 57.585 41.475 57.465 41.115 57.225C40.905 57.015 40.8 55.485 40.8 52.635C40.8 49.785 40.89 48.27 41.07 48.09C41.28 47.88 41.925 47.61 43.005 47.28C44.115 46.95 44.985 46.785 45.615 46.785C45.615 50.025 46.32 51.885 47.73 52.365ZM80.2098 41.745C83.7498 41.415 86.3448 40.59 87.9948 39.27C89.6748 37.92 90.5148 36.6 90.5148 35.31C90.5148 33.99 89.8698 33.03 88.5798 32.43C87.2898 31.8 85.6548 31.485 83.6748 31.485C82.6248 31.485 81.5598 31.575 80.4798 31.755C80.2998 33.045 80.2098 36.375 80.2098 41.745ZM80.7048 57.27C80.3748 57.6 79.7148 57.855 78.7248 58.035C77.7348 58.245 76.9098 58.35 76.2498 58.35C75.5898 58.35 75.0198 58.26 74.5398 58.08L74.8098 32.115C74.4198 31.635 74.0298 30.84 73.6398 29.73C73.2798 28.62 73.0998 27.945 73.0998 27.705C73.0998 27.435 73.1298 27.27 73.1898 27.21C73.2498 27.12 74.1948 27.03 76.0248 26.94C77.8848 26.82 79.7598 26.76 81.6498 26.76C83.5398 26.76 85.2198 26.865 86.6898 27.075C88.1598 27.285 89.6898 27.66 91.2798 28.2C92.8698 28.71 94.1298 29.535 95.0598 30.675C95.9898 31.815 96.4548 33.285 96.4548 35.085C96.4548 36.855 95.8248 38.505 94.5648 40.035C93.3048 41.565 91.5948 42.855 89.4348 43.905C89.4348 44.385 90.3798 46.545 92.2698 50.385C94.1598 54.195 95.6598 56.655 96.7698 57.765C96.7998 57.795 96.8148 57.84 96.8148 57.9C96.8148 57.99 96.5748 58.14 96.0948 58.35C94.7748 58.98 93.3498 59.295 91.8198 59.295L90.6948 59.205C90.0348 58.545 88.8798 56.355 87.2298 52.635C85.6098 48.915 84.7098 46.635 84.5298 45.795C84.1698 46.005 82.7448 46.32 80.2548 46.74C80.3148 52.77 80.4648 56.28 80.7048 57.27ZM118.141 47.64C118.141 50.49 117.271 52.965 115.531 55.065C113.821 57.135 111.481 58.17 108.511 58.17C105.571 58.17 103.261 57.255 101.581 55.425C99.9009 53.595 99.0609 51.225 99.0609 48.315C99.0609 45.375 100.096 42.78 102.166 40.53C104.266 38.25 107.086 37.11 110.626 37.11C112.066 37.17 112.846 37.26 112.966 37.38C113.086 37.5 113.146 37.785 113.146 38.235C113.146 38.685 113.101 39.18 113.011 39.72C113.461 39.72 114.031 39.99 114.721 40.53C115.441 41.04 116.026 41.565 116.476 42.105C116.926 42.645 117.316 43.41 117.646 44.4C117.976 45.36 118.141 46.44 118.141 47.64ZM111.571 44.49C110.881 44.04 110.206 43.815 109.546 43.815H109.186C109.126 43.695 109.096 43.44 109.096 43.05C109.096 42.66 109.141 42.285 109.231 41.925C108.001 41.925 106.846 42.48 105.766 43.59C104.716 44.7 104.191 46.245 104.191 48.225C104.191 50.565 104.941 52.185 106.441 53.085C107.011 53.445 107.791 53.625 108.781 53.625C109.801 53.625 110.746 53.16 111.616 52.23C112.516 51.3 112.966 49.92 112.966 48.09C112.966 46.26 112.501 45.06 111.571 44.49ZM132.828 55.29L132.783 54.345L132.738 54.255C132.018 55.365 131.103 56.25 129.993 56.91C128.913 57.57 127.848 57.9 126.798 57.9C123.648 57.9 121.848 55.455 121.398 50.565C121.338 49.785 121.308 47.775 121.308 44.535C121.308 41.295 121.443 39.375 121.713 38.775C122.493 38.145 123.753 37.83 125.493 37.83C126.183 37.83 126.603 37.905 126.753 38.055C126.753 38.085 126.738 38.49 126.708 39.27C126.558 41.55 126.483 43.305 126.483 44.535C126.483 45.765 126.498 46.68 126.528 47.28C126.558 47.85 126.573 48.225 126.573 48.405C126.603 48.555 126.648 48.84 126.708 49.26C126.798 49.68 126.918 50.04 127.068 50.34C127.518 51.21 128.208 51.645 129.138 51.645C130.098 51.645 130.938 51.18 131.658 50.25C132.408 49.29 132.768 48.615 132.738 48.225V46.695C132.738 41.205 132.828 38.25 133.008 37.83C133.158 37.56 133.623 37.275 134.403 36.975C135.213 36.675 136.008 36.525 136.788 36.525C137.568 36.525 138.018 36.585 138.138 36.705L138.048 38.82C137.868 43.11 137.778 46.425 137.778 48.765C137.778 51.105 137.838 52.59 137.958 53.22C138.168 54.72 138.573 55.92 139.173 56.82C139.173 57.12 138.558 57.6 137.328 58.26C136.098 58.92 135.048 59.25 134.178 59.25C133.938 59.25 133.668 58.8 133.368 57.9C133.068 57 132.888 56.13 132.828 55.29ZM147.769 46.875L147.814 48.54V51.96C147.814 55.17 147.754 56.835 147.634 56.955C147.244 57.345 146.569 57.645 145.609 57.855C144.649 58.065 143.854 58.17 143.224 58.17C142.624 58.17 142.324 58.125 142.324 58.035C142.534 56.685 142.639 54.465 142.639 51.375L142.504 41.25C142.504 39.39 142.579 38.385 142.729 38.235C143.059 37.905 143.629 37.62 144.439 37.38C145.249 37.11 145.999 36.975 146.689 36.975C147.409 36.975 147.769 37.05 147.769 37.2C147.679 37.92 147.634 38.64 147.634 39.36C147.634 40.08 147.679 40.44 147.769 40.44L147.904 40.35C148.054 40.14 148.279 39.885 148.579 39.585C148.879 39.255 149.509 38.835 150.469 38.325C151.459 37.785 152.389 37.515 153.259 37.515C154.159 37.515 154.909 37.68 155.509 38.01C156.139 38.31 156.649 38.685 157.039 39.135C157.429 39.585 157.759 40.23 158.029 41.07C158.329 41.91 158.554 42.69 158.704 43.41C158.854 44.13 158.974 45.09 159.064 46.29C159.154 47.94 159.199 50.04 159.199 52.59L159.064 57.855C159.064 58.065 158.569 58.26 157.579 58.44C156.589 58.65 155.794 58.755 155.194 58.755L153.709 58.53C154.009 55.83 154.159 53.22 154.159 50.7C154.159 48.15 153.994 46.245 153.664 44.985C153.334 43.695 152.674 43.05 151.684 43.05C150.694 43.05 149.884 43.32 149.254 43.86C148.654 44.4 148.264 44.94 148.084 45.48L147.769 46.245V46.875ZM174.492 37.695L174.402 31.035C174.402 29.175 174.447 28.2 174.537 28.11C174.897 27.75 175.482 27.405 176.292 27.075C177.132 26.715 177.927 26.535 178.677 26.535C179.427 26.535 179.802 26.595 179.802 26.715C179.562 31.695 179.442 36.99 179.442 42.6C179.442 48.21 179.532 51.555 179.712 52.635C179.922 54.255 180.417 55.455 181.197 56.235C181.197 56.535 180.567 57 179.307 57.63C178.077 58.29 177.027 58.62 176.157 58.62C176.067 58.62 175.932 58.5 175.752 58.26C175.182 57.51 174.837 56.49 174.717 55.2C174.717 55.11 174.687 55.065 174.627 55.065L174.492 55.155C173.232 56.955 171.357 57.855 168.867 57.855C166.857 57.855 165.267 57.06 164.097 55.47C162.927 53.88 162.342 52.095 162.342 50.115C162.342 46.725 163.392 43.845 165.492 41.475C167.592 39.075 170.592 37.815 174.492 37.695ZM174.582 42.42C174.582 42.36 174.417 42.33 174.087 42.33H173.907C171.987 42.33 170.472 42.945 169.362 44.175C168.282 45.405 167.742 46.965 167.742 48.855C167.742 49.965 167.997 50.88 168.507 51.6C169.047 52.29 169.842 52.635 170.892 52.635C171.972 52.635 172.827 52.17 173.457 51.24C174.117 50.31 174.447 49.575 174.447 49.035C174.447 45.705 174.492 43.5 174.582 42.42Z" fill="white"/>
</g>
<defs>
<filter id="filter0_d_14_15" x="0" y="0" width="226" height="104" filterUnits="userSpaceOnUse" color-interpolation-filters="sRGB">
<feFlood flood-opacity="0" result="BackgroundImageFix"/>
<feColorMatrix in="SourceAlpha" type="matrix" values="0 0 0 0 0 0 0 0 0 0 0 0 0 0 0 0 0 0 127 0" result="hardAlpha"/>
<feOffset dx="7" dy="7"/>
<feGaussianBlur stdDeviation="8"/>
<feComposite in2="hardAlpha" operator="out"/>
<feColorMatrix type="matrix" values="0 0 0 0 0 0 0 0 0 0 0 0 0 0 0 0 0 0 0.5 0"/>
<feBlend mode="normal" in2="BackgroundImageFix" result="effect1_dropShadow_14_15"/>
<feBlend mode="normal" in="SourceGraphic" in2="effect1_dropShadow_14_15" result="shape"/>
</filter>
<filter id="filter1_d_14_15" x="36.8" y="26.535" width="148.397" height="40.76" filterUnits="userSpaceOnUse" color-interpolation-filters="sRGB">
<feFlood flood-opacity="0" result="BackgroundImageFix"/>
<feColorMatrix in="SourceAlpha" type="matrix" values="0 0 0 0 0 0 0 0 0 0 0 0 0 0 0 0 0 0 127 0" result="hardAlpha"/>
<feOffset dy="4"/>
<feGaussianBlur stdDeviation="2"/>
<feComposite in2="hardAlpha" operator="out"/>
<feColorMatrix type="matrix" values="0 0 0 0 0 0 0 0 0 0 0 0 0 0 0 0 0 0 0.25 0"/>
<feBlend mode="normal" in2="BackgroundImageFix" result="effect1_dropShadow_14_15"/>
<feBlend mode="normal" in="SourceGraphic" in2="effect1_dropShadow_14_15" result="shape"/>
</filter>
</defs>
</svg>
