<svg width="226" height="104" viewBox="0 0 226 104" fill="none" xmlns="http://www.w3.org/2000/svg">
<g filter="url(#filter0_d_14_18)">
<rect x="9" y="9" width="194" height="72" rx="30" fill="#00B3FF"/>
<rect x="11.5" y="11.5" width="189" height="67" rx="27.5" stroke="white" stroke-width="5"/>
</g>
<g filter="url(#filter1_d_14_18)">
<path d="M50.52 58.215C50.52 58.425 49.98 58.575 48.9 58.665L48.405 58.71C46.245 58.71 44.82 58.47 44.13 57.99C43.86 57.84 43.725 57.705 43.725 57.585C43.725 55.455 44.07 53.13 44.76 50.61C45.45 48.09 46.245 45.84 47.145 43.86C48.045 41.88 49.05 39.93 50.16 38.01C51.6 35.49 52.845 33.495 53.895 32.025C53.895 31.725 52.755 31.575 50.475 31.575C48.225 31.575 46.71 31.965 45.93 32.745C45.18 33.435 44.67 34.53 44.4 36.03L44.265 36.75C44.115 36.9 43.485 36.795 42.375 36.435C41.295 36.075 40.65 35.7 40.44 35.31C40.35 35.16 40.32 33.84 40.35 31.35C40.41 28.86 40.53 27.525 40.71 27.345C40.89 27.165 42.105 27.075 44.355 27.075C46.605 27.075 48.345 27.09 49.575 27.12C50.835 27.12 51.99 27.12 53.04 27.12C55.95 27.18 57.93 27.075 58.98 26.805C59.31 26.715 59.745 27.195 60.285 28.245C60.825 29.295 61.095 30.105 61.095 30.675C60.585 31.035 59.76 32.025 58.62 33.645C57.51 35.265 56.325 37.245 55.065 39.585C53.805 41.895 52.71 44.58 51.78 47.64C50.85 50.7 50.385 53.535 50.385 56.145V56.55C50.385 57.36 50.43 57.915 50.52 58.215ZM79.243 41.745C82.783 41.415 85.378 40.59 87.028 39.27C88.708 37.92 89.548 36.6 89.548 35.31C89.548 33.99 88.903 33.03 87.613 32.43C86.323 31.8 84.688 31.485 82.708 31.485C81.658 31.485 80.593 31.575 79.513 31.755C79.333 33.045 79.243 36.375 79.243 41.745ZM79.738 57.27C79.408 57.6 78.748 57.855 77.758 58.035C76.768 58.245 75.943 58.35 75.283 58.35C74.623 58.35 74.053 58.26 73.573 58.08L73.843 32.115C73.453 31.635 73.063 30.84 72.673 29.73C72.313 28.62 72.133 27.945 72.133 27.705C72.133 27.435 72.163 27.27 72.223 27.21C72.283 27.12 73.228 27.03 75.058 26.94C76.918 26.82 78.793 26.76 80.683 26.76C82.573 26.76 84.253 26.865 85.723 27.075C87.193 27.285 88.723 27.66 90.313 28.2C91.903 28.71 93.163 29.535 94.093 30.675C95.023 31.815 95.488 33.285 95.488 35.085C95.488 36.855 94.858 38.505 93.598 40.035C92.338 41.565 90.628 42.855 88.468 43.905C88.468 44.385 89.413 46.545 91.303 50.385C93.193 54.195 94.693 56.655 95.803 57.765C95.833 57.795 95.848 57.84 95.848 57.9C95.848 57.99 95.608 58.14 95.128 58.35C93.808 58.98 92.383 59.295 90.853 59.295L89.728 59.205C89.068 58.545 87.913 56.355 86.263 52.635C84.643 48.915 83.743 46.635 83.563 45.795C83.203 46.005 81.778 46.32 79.288 46.74C79.348 52.77 79.498 56.28 79.738 57.27ZM117.174 47.64C117.174 50.49 116.304 52.965 114.564 55.065C112.854 57.135 110.514 58.17 107.544 58.17C104.604 58.17 102.294 57.255 100.614 55.425C98.9341 53.595 98.0941 51.225 98.0941 48.315C98.0941 45.375 99.1291 42.78 101.199 40.53C103.299 38.25 106.119 37.11 109.659 37.11C111.099 37.17 111.879 37.26 111.999 37.38C112.119 37.5 112.179 37.785 112.179 38.235C112.179 38.685 112.134 39.18 112.044 39.72C112.494 39.72 113.064 39.99 113.754 40.53C114.474 41.04 115.059 41.565 115.509 42.105C115.959 42.645 116.349 43.41 116.679 44.4C117.009 45.36 117.174 46.44 117.174 47.64ZM110.604 44.49C109.914 44.04 109.239 43.815 108.579 43.815H108.219C108.159 43.695 108.129 43.44 108.129 43.05C108.129 42.66 108.174 42.285 108.264 41.925C107.034 41.925 105.879 42.48 104.799 43.59C103.749 44.7 103.224 46.245 103.224 48.225C103.224 50.565 103.974 52.185 105.474 53.085C106.044 53.445 106.824 53.625 107.814 53.625C108.834 53.625 109.779 53.16 110.649 52.23C111.549 51.3 111.999 49.92 111.999 48.09C111.999 46.26 111.534 45.06 110.604 44.49ZM131.861 55.29L131.816 54.345L131.771 54.255C131.051 55.365 130.136 56.25 129.026 56.91C127.946 57.57 126.881 57.9 125.831 57.9C122.681 57.9 120.881 55.455 120.431 50.565C120.371 49.785 120.341 47.775 120.341 44.535C120.341 41.295 120.476 39.375 120.746 38.775C121.526 38.145 122.786 37.83 124.526 37.83C125.216 37.83 125.636 37.905 125.786 38.055C125.786 38.085 125.771 38.49 125.741 39.27C125.591 41.55 125.516 43.305 125.516 44.535C125.516 45.765 125.531 46.68 125.561 47.28C125.591 47.85 125.606 48.225 125.606 48.405C125.636 48.555 125.681 48.84 125.741 49.26C125.831 49.68 125.951 50.04 126.101 50.34C126.551 51.21 127.241 51.645 128.171 51.645C129.131 51.645 129.971 51.18 130.691 50.25C131.441 49.29 131.801 48.615 131.771 48.225V46.695C131.771 41.205 131.861 38.25 132.041 37.83C132.191 37.56 132.656 37.275 133.436 36.975C134.246 36.675 135.041 36.525 135.821 36.525C136.601 36.525 137.051 36.585 137.171 36.705L137.081 38.82C136.901 43.11 136.811 46.425 136.811 48.765C136.811 51.105 136.871 52.59 136.991 53.22C137.201 54.72 137.606 55.92 138.206 56.82C138.206 57.12 137.591 57.6 136.361 58.26C135.131 58.92 134.081 59.25 133.211 59.25C132.971 59.25 132.701 58.8 132.401 57.9C132.101 57 131.921 56.13 131.861 55.29ZM146.802 46.875L146.847 48.54V51.96C146.847 55.17 146.787 56.835 146.667 56.955C146.277 57.345 145.602 57.645 144.642 57.855C143.682 58.065 142.887 58.17 142.257 58.17C141.657 58.17 141.357 58.125 141.357 58.035C141.567 56.685 141.672 54.465 141.672 51.375L141.537 41.25C141.537 39.39 141.612 38.385 141.762 38.235C142.092 37.905 142.662 37.62 143.472 37.38C144.282 37.11 145.032 36.975 145.722 36.975C146.442 36.975 146.802 37.05 146.802 37.2C146.712 37.92 146.667 38.64 146.667 39.36C146.667 40.08 146.712 40.44 146.802 40.44L146.937 40.35C147.087 40.14 147.312 39.885 147.612 39.585C147.912 39.255 148.542 38.835 149.502 38.325C150.492 37.785 151.422 37.515 152.292 37.515C153.192 37.515 153.942 37.68 154.542 38.01C155.172 38.31 155.682 38.685 156.072 39.135C156.462 39.585 156.792 40.23 157.062 41.07C157.362 41.91 157.587 42.69 157.737 43.41C157.887 44.13 158.007 45.09 158.097 46.29C158.187 47.94 158.232 50.04 158.232 52.59L158.097 57.855C158.097 58.065 157.602 58.26 156.612 58.44C155.622 58.65 154.827 58.755 154.227 58.755L152.742 58.53C153.042 55.83 153.192 53.22 153.192 50.7C153.192 48.15 153.027 46.245 152.697 44.985C152.367 43.695 151.707 43.05 150.717 43.05C149.727 43.05 148.917 43.32 148.287 43.86C147.687 44.4 147.297 44.94 147.117 45.48L146.802 46.245V46.875ZM173.525 37.695L173.435 31.035C173.435 29.175 173.48 28.2 173.57 28.11C173.93 27.75 174.515 27.405 175.325 27.075C176.165 26.715 176.96 26.535 177.71 26.535C178.46 26.535 178.835 26.595 178.835 26.715C178.595 31.695 178.475 36.99 178.475 42.6C178.475 48.21 178.565 51.555 178.745 52.635C178.955 54.255 179.45 55.455 180.23 56.235C180.23 56.535 179.6 57 178.34 57.63C177.11 58.29 176.06 58.62 175.19 58.62C175.1 58.62 174.965 58.5 174.785 58.26C174.215 57.51 173.87 56.49 173.75 55.2C173.75 55.11 173.72 55.065 173.66 55.065L173.525 55.155C172.265 56.955 170.39 57.855 167.9 57.855C165.89 57.855 164.3 57.06 163.13 55.47C161.96 53.88 161.375 52.095 161.375 50.115C161.375 46.725 162.425 43.845 164.525 41.475C166.625 39.075 169.625 37.815 173.525 37.695ZM173.615 42.42C173.615 42.36 173.45 42.33 173.12 42.33H172.94C171.02 42.33 169.505 42.945 168.395 44.175C167.315 45.405 166.775 46.965 166.775 48.855C166.775 49.965 167.03 50.88 167.54 51.6C168.08 52.29 168.875 52.635 169.925 52.635C171.005 52.635 171.86 52.17 172.49 51.24C173.15 50.31 173.48 49.575 173.48 49.035C173.48 45.705 173.525 43.5 173.615 42.42Z" fill="white"/>
</g>
<defs>
<filter id="filter0_d_14_18" x="0" y="0" width="226" height="104" filterUnits="userSpaceOnUse" color-interpolation-filters="sRGB">
<feFlood flood-opacity="0" result="BackgroundImageFix"/>
<feColorMatrix in="SourceAlpha" type="matrix" values="0 0 0 0 0 0 0 0 0 0 0 0 0 0 0 0 0 0 127 0" result="hardAlpha"/>
<feOffset dx="7" dy="7"/>
<feGaussianBlur stdDeviation="8"/>
<feComposite in2="hardAlpha" operator="out"/>
<feColorMatrix type="matrix" values="0 0 0 0 0 0 0 0 0 0 0 0 0 0 0 0 0 0 0.5 0"/>
<feBlend mode="normal" in2="BackgroundImageFix" result="effect1_dropShadow_14_18"/>
<feBlend mode="normal" in="SourceGraphic" in2="effect1_dropShadow_14_18" result="shape"/>
</filter>
<filter id="filter1_d_14_18" x="36.305" y="26.535" width="147.925" height="40.76" filterUnits="userSpaceOnUse" color-interpolation-filters="sRGB">
<feFlood flood-opacity="0" result="BackgroundImageFix"/>
<feColorMatrix in="SourceAlpha" type="matrix" values="0 0 0 0 0 0 0 0 0 0 0 0 0 0 0 0 0 0 127 0" result="hardAlpha"/>
<feOffset dy="4"/>
<feGaussianBlur stdDeviation="2"/>
<feComposite in2="hardAlpha" operator="out"/>
<feColorMatrix type="matrix" values="0 0 0 0 0 0 0 0 0 0 0 0 0 0 0 0 0 0 0.25 0"/>
<feBlend mode="normal" in2="BackgroundImageFix" result="effect1_dropShadow_14_18"/>
<feBlend mode="normal" in="SourceGraphic" in2="effect1_dropShadow_14_18" result="shape"/>
</filter>
</defs>
</svg>
