<svg width="226" height="104" viewBox="0 0 226 104" fill="none" xmlns="http://www.w3.org/2000/svg">
<g filter="url(#filter0_d_9_11)">
<rect x="9" y="9" width="194" height="72" rx="30" fill="#70FF00"/>
<rect x="11.5" y="11.5" width="189" height="67" rx="27.5" stroke="white" stroke-width="5"/>
</g>
<g filter="url(#filter1_d_9_11)">
<path d="M76.955 39.745C83.675 39.145 87.035 37 87.035 33.31C87.035 32.11 86.405 31.18 85.145 30.52C83.915 29.83 82.34 29.485 80.42 29.485L77.18 29.755C77.03 30.835 76.955 34.165 76.955 39.745ZM77.405 55.27C77.075 55.6 76.415 55.855 75.425 56.035C74.465 56.245 73.64 56.35 72.95 56.35C72.26 56.35 71.705 56.26 71.285 56.08L71.555 30.115C71.135 29.635 70.73 28.84 70.34 27.73C69.98 26.62 69.8 25.945 69.8 25.705C69.8 25.435 69.83 25.27 69.89 25.21C69.98 25.12 70.94 25.03 72.77 24.94C74.63 24.82 76.49 24.76 78.35 24.76C80.24 24.76 81.92 24.865 83.39 25.075C84.86 25.285 86.36 25.675 87.89 26.245C89.45 26.785 90.68 27.64 91.58 28.81C92.51 29.95 92.975 31.42 92.975 33.22C92.975 35.02 92.42 36.67 91.31 38.17C90.23 39.67 88.91 40.81 87.35 41.59C84.11 43.24 81.2 44.23 78.62 44.56L76.955 44.74C77.075 50.86 77.225 54.37 77.405 55.27ZM96.1338 48.61L96.3138 32.32C96.3138 29.95 96.2838 28.345 96.2238 27.505C96.1638 26.665 96.1338 26.215 96.1338 26.155C96.1338 25.855 96.6288 25.51 97.6188 25.12C98.6388 24.73 99.5388 24.535 100.319 24.535C101.099 24.535 101.489 24.595 101.489 24.715C101.339 25.825 101.264 29.725 101.264 36.415L101.174 47.44C101.174 49.51 101.204 50.785 101.264 51.265C101.414 52.585 101.849 53.785 102.569 54.865C102.569 55.165 101.954 55.645 100.724 56.305C99.4938 56.965 98.4438 57.295 97.5738 57.295C97.3338 57.295 97.0638 56.845 96.7638 55.945C96.4638 55.045 96.2838 54.265 96.2238 53.605C96.1638 52.945 96.1338 51.28 96.1338 48.61ZM121.339 44.965C121.339 48.715 121.384 50.905 121.474 51.535C121.714 53.185 122.224 54.37 123.004 55.09C123.004 55.42 122.404 55.915 121.204 56.575C120.034 57.235 118.969 57.565 118.009 57.565C117.739 57.565 117.454 57.16 117.154 56.35C116.854 55.57 116.674 54.985 116.614 54.595C116.584 54.205 116.554 54.01 116.524 54.01L116.389 54.1C114.799 55.36 112.939 55.99 110.809 55.99C108.679 55.99 107.029 55.48 105.859 54.46C104.719 53.41 104.149 52.045 104.149 50.365C104.149 48.685 104.509 47.275 105.229 46.135C105.979 44.965 106.849 44.08 107.839 43.48C108.829 42.88 109.924 42.4 111.124 42.04C112.954 41.44 114.394 41.14 115.444 41.14L115.534 41.095C115.534 39.625 113.674 38.89 109.954 38.89C108.484 38.89 107.389 38.95 106.669 39.07H106.624C106.624 38.47 106.804 37.72 107.164 36.82C107.554 35.92 107.869 35.335 108.109 35.065C108.379 34.795 109.459 34.66 111.349 34.66C114.769 34.66 117.289 35.32 118.909 36.64C120.529 37.93 121.339 39.94 121.339 42.67V44.965ZM116.344 47.845V46.135C116.344 45.475 116.329 45.145 116.299 45.145C114.289 45.145 112.549 45.67 111.079 46.72C110.149 47.38 109.684 48.205 109.684 49.195C109.684 49.825 109.909 50.35 110.359 50.77C110.809 51.19 111.484 51.4 112.384 51.4C113.314 51.4 114.199 51.13 115.039 50.59C115.909 50.05 116.344 49.135 116.344 47.845ZM142.084 42.445L142.129 54.415C142.129 56.755 141.814 58.84 141.184 60.67C140.584 62.5 139.834 63.91 138.934 64.9C138.064 65.89 137.059 66.7 135.919 67.33C134.059 68.38 132.169 68.905 130.249 68.905C130.159 68.905 129.979 68.68 129.709 68.23C129.439 67.78 129.184 67.165 128.944 66.385C128.704 65.635 128.584 64.93 128.584 64.27C129.724 64.27 130.864 64.045 132.004 63.595C133.144 63.175 133.939 62.71 134.389 62.2C134.839 61.72 135.289 61.105 135.739 60.355C136.669 58.885 137.134 56.5 137.134 53.2L137.089 51.895C137.089 51.715 137.059 51.625 136.999 51.625C136.939 51.625 136.879 51.67 136.819 51.76C136.759 51.85 136.684 51.97 136.594 52.12C136.504 52.24 136.279 52.48 135.919 52.84C135.589 53.17 135.229 53.47 134.839 53.74C133.789 54.46 132.724 54.82 131.644 54.82C130.594 54.82 129.754 54.685 129.124 54.415C128.524 54.145 128.014 53.8 127.594 53.38C127.204 52.96 126.874 52.375 126.604 51.625C126.334 50.845 126.124 50.125 125.974 49.465C125.824 48.805 125.719 47.905 125.659 46.765C125.539 45.175 125.479 43.525 125.479 41.815C125.479 39.445 125.599 37.51 125.839 36.01L125.974 35.38C125.974 35.17 126.424 34.96 127.324 34.75C128.254 34.54 129.019 34.435 129.619 34.435L131.059 34.66C130.729 37.63 130.564 40.135 130.564 42.175C130.564 44.215 130.774 45.91 131.194 47.26C131.614 48.61 132.319 49.285 133.309 49.285C134.299 49.285 135.079 49 135.649 48.43C136.249 47.83 136.624 47.245 136.774 46.675L136.999 45.82C136.939 43.93 136.909 41.905 136.909 39.745C136.909 37.555 136.984 36.385 137.134 36.235C137.524 35.845 138.199 35.545 139.159 35.335C140.149 35.125 140.944 35.02 141.544 35.02C142.144 35.02 142.444 35.065 142.444 35.155C142.204 36.565 142.084 38.995 142.084 42.445Z" fill="white"/>
</g>
<defs>
<filter id="filter0_d_9_11" x="0" y="0" width="226" height="104" filterUnits="userSpaceOnUse" color-interpolation-filters="sRGB">
<feFlood flood-opacity="0" result="BackgroundImageFix"/>
<feColorMatrix in="SourceAlpha" type="matrix" values="0 0 0 0 0 0 0 0 0 0 0 0 0 0 0 0 0 0 127 0" result="hardAlpha"/>
<feOffset dx="7" dy="7"/>
<feGaussianBlur stdDeviation="8"/>
<feComposite in2="hardAlpha" operator="out"/>
<feColorMatrix type="matrix" values="0 0 0 0 0 0 0 0 0 0 0 0 0 0 0 0 0 0 0.5 0"/>
<feBlend mode="normal" in2="BackgroundImageFix" result="effect1_dropShadow_9_11"/>
<feBlend mode="normal" in="SourceGraphic" in2="effect1_dropShadow_9_11" result="shape"/>
</filter>
<filter id="filter1_d_9_11" x="65.8" y="24.535" width="80.6437" height="52.37" filterUnits="userSpaceOnUse" color-interpolation-filters="sRGB">
<feFlood flood-opacity="0" result="BackgroundImageFix"/>
<feColorMatrix in="SourceAlpha" type="matrix" values="0 0 0 0 0 0 0 0 0 0 0 0 0 0 0 0 0 0 127 0" result="hardAlpha"/>
<feOffset dy="4"/>
<feGaussianBlur stdDeviation="2"/>
<feComposite in2="hardAlpha" operator="out"/>
<feColorMatrix type="matrix" values="0 0 0 0 0 0 0 0 0 0 0 0 0 0 0 0 0 0 0.25 0"/>
<feBlend mode="normal" in2="BackgroundImageFix" result="effect1_dropShadow_9_11"/>
<feBlend mode="normal" in="SourceGraphic" in2="effect1_dropShadow_9_11" result="shape"/>
</filter>
</defs>
</svg>
